<?xml version="1.0" encoding="UTF-8" standalone="no"?>
<!DOCTYPE svg PUBLIC "-//W3C//DTD SVG 1.1//EN"
 "http://www.w3.org/Graphics/SVG/1.1/DTD/svg11.dtd">
<!-- Generated by graphviz version 2.26.3 (20100126.1600)
 -->
<!-- Title: _anonymous_0 Pages: 1 -->
<svg width="312pt" height="218pt"
 viewBox="0.00 0.00 312.00 218.00" xmlns="http://www.w3.org/2000/svg" xmlns:xlink="http://www.w3.org/1999/xlink">
<g id="graph1" class="graph" transform="scale(1 1) rotate(0) translate(4 214)">
<title>_anonymous_0</title>
<polygon fill="white" stroke="white" points="-4,5 -4,-214 309,-214 309,5 -4,5"/>
<text text-anchor="middle" x="152" y="-9.4" font-family="Times Roman,serif" font-size="14.00">Figure 1. &#160;Modules using Shared Variables</text>
<!-- math_in_1 -->
<g id="node1" class="node"><title>math_in_1</title>
<ellipse fill="none" stroke="black" cx="80" cy="-191" rx="62.9325" ry="18.3848"/>
<text text-anchor="middle" x="80" y="-187.4" font-family="Times Roman,serif" font-size="14.00">math_in_1</text>
</g>
<!-- muler -->
<g id="node3" class="node"><title>muler</title>
<polygon fill="none" stroke="black" points="143,-136 85,-136 85,-100 143,-100 143,-136"/>
<text text-anchor="middle" x="114" y="-114.4" font-family="Times Roman,serif" font-size="14.00">mul&#39;er</text>
</g>
<!-- math_in_1&#45;&gt;muler -->
<g id="edge2" class="edge"><title>math_in_1&#45;&gt;muler</title>
<path fill="none" stroke="black" d="M88.5796,-172.579C92.4342,-164.303 97.0614,-154.368 101.305,-145.256"/>
<polygon fill="black" stroke="black" points="104.492,-146.705 105.541,-136.162 98.146,-143.749 104.492,-146.705"/>
</g>
<!-- adder -->
<g id="node7" class="node"><title>adder</title>
<polygon fill="none" stroke="black" points="217,-136 161,-136 161,-100 217,-100 217,-136"/>
<text text-anchor="middle" x="189" y="-114.4" font-family="Times Roman,serif" font-size="14.00">adder</text>
</g>
<!-- math_in_1&#45;&gt;adder -->
<g id="edge6" class="edge"><title>math_in_1&#45;&gt;adder</title>
<path fill="none" stroke="black" d="M105.556,-173.885C119.891,-164.284 137.989,-152.163 153.664,-141.665"/>
<polygon fill="black" stroke="black" points="155.722,-144.499 162.083,-136.027 151.827,-138.683 155.722,-144.499"/>
</g>
<!-- math_out -->
<g id="node10" class="node"><title>math_out</title>
<ellipse fill="none" stroke="black" cx="151" cy="-45" rx="58.1882" ry="18.3848"/>
<text text-anchor="middle" x="151" y="-41.4" font-family="Times Roman,serif" font-size="14.00">math_out</text>
</g>
<!-- muler&#45;&gt;math_out -->
<g id="edge10" class="edge"><title>muler&#45;&gt;math_out</title>
<path fill="none" stroke="black" d="M123.146,-99.9551C127.339,-91.6823 132.402,-81.6931 137.055,-72.5127"/>
<polygon fill="black" stroke="black" points="140.303,-73.8465 141.702,-63.3444 134.059,-70.6818 140.303,-73.8465"/>
</g>
<!-- math_in_2 -->
<g id="node4" class="node"><title>math_in_2</title>
<ellipse fill="none" stroke="black" cx="224" cy="-191" rx="62.9325" ry="18.3848"/>
<text text-anchor="middle" x="224" y="-187.4" font-family="Times Roman,serif" font-size="14.00">math_in_2</text>
</g>
<!-- math_in_2&#45;&gt;muler -->
<g id="edge4" class="edge"><title>math_in_2&#45;&gt;muler</title>
<path fill="none" stroke="black" d="M198.487,-174.069C184.029,-164.474 165.71,-152.317 149.829,-141.777"/>
<polygon fill="black" stroke="black" points="151.564,-138.729 141.297,-136.115 147.694,-144.561 151.564,-138.729"/>
</g>
<!-- math_in_2&#45;&gt;adder -->
<g id="edge8" class="edge"><title>math_in_2&#45;&gt;adder</title>
<path fill="none" stroke="black" d="M215.168,-172.579C211.2,-164.303 206.437,-154.368 202.068,-145.256"/>
<polygon fill="black" stroke="black" points="205.187,-143.666 197.708,-136.162 198.875,-146.693 205.187,-143.666"/>
</g>
<!-- adder&#45;&gt;math_out -->
<g id="edge12" class="edge"><title>adder&#45;&gt;math_out</title>
<path fill="none" stroke="black" d="M179.607,-99.9551C175.255,-91.5952 169.991,-81.4826 165.171,-72.223"/>
<polygon fill="black" stroke="black" points="168.271,-70.5985 160.549,-63.3444 162.062,-73.8307 168.271,-70.5985"/>
</g>
</g>
</svg>
