<?xml version="1.0" encoding="UTF-8" standalone="no"?>
<!DOCTYPE svg PUBLIC "-//W3C//DTD SVG 1.1//EN"
 "http://www.w3.org/Graphics/SVG/1.1/DTD/svg11.dtd">
<!-- Generated by graphviz version 2.26.3 (20100126.1600)
 -->
<!-- Title: _anonymous_0 Pages: 1 -->
<svg width="506pt" height="218pt"
 viewBox="0.00 0.00 506.00 218.00" xmlns="http://www.w3.org/2000/svg" xmlns:xlink="http://www.w3.org/1999/xlink">
<g id="graph1" class="graph" transform="scale(1 1) rotate(0) translate(4 214)">
<title>_anonymous_0</title>
<polygon fill="white" stroke="white" points="-4,5 -4,-214 503,-214 503,5 -4,5"/>
<text text-anchor="middle" x="249" y="-9.4" font-family="Times Roman,serif" font-size="14.00">Figure 2. &#160;Modules using Independent Variables</text>
<!-- mul_in_1 -->
<g id="node2" class="node"><title>mul_in_1</title>
<ellipse fill="none" stroke="black" cx="56" cy="-191" rx="55.8614" ry="18.3848"/>
<text text-anchor="middle" x="56" y="-187.4" font-family="Times Roman,serif" font-size="14.00">mul_in_1</text>
</g>
<!-- muler -->
<g id="node4" class="node"><title>muler</title>
<polygon fill="none" stroke="black" points="150,-136 92,-136 92,-100 150,-100 150,-136"/>
<text text-anchor="middle" x="121" y="-114.4" font-family="Times Roman,serif" font-size="14.00">mul&#39;er</text>
</g>
<!-- mul_in_1&#45;&gt;muler -->
<g id="edge3" class="edge"><title>mul_in_1&#45;&gt;muler</title>
<path fill="none" stroke="black" d="M72.0674,-172.955C79.9581,-164.093 89.6026,-153.262 98.237,-143.565"/>
<polygon fill="black" stroke="black" points="100.856,-145.886 104.892,-136.09 95.6282,-141.231 100.856,-145.886"/>
</g>
<!-- mul_out -->
<g id="node8" class="node"><title>mul_out</title>
<ellipse fill="none" stroke="black" cx="121" cy="-45" rx="51.1176" ry="18.3848"/>
<text text-anchor="middle" x="121" y="-41.4" font-family="Times Roman,serif" font-size="14.00">mul_out</text>
</g>
<!-- muler&#45;&gt;mul_out -->
<g id="edge7" class="edge"><title>muler&#45;&gt;mul_out</title>
<path fill="none" stroke="black" d="M121,-99.9551C121,-92.0906 121,-82.6751 121,-73.8778"/>
<polygon fill="black" stroke="black" points="124.5,-73.5995 121,-63.5995 117.5,-73.5996 124.5,-73.5995"/>
</g>
<!-- mul_in_2 -->
<g id="node5" class="node"><title>mul_in_2</title>
<ellipse fill="none" stroke="black" cx="186" cy="-191" rx="55.8614" ry="18.3848"/>
<text text-anchor="middle" x="186" y="-187.4" font-family="Times Roman,serif" font-size="14.00">mul_in_2</text>
</g>
<!-- mul_in_2&#45;&gt;muler -->
<g id="edge5" class="edge"><title>mul_in_2&#45;&gt;muler</title>
<path fill="none" stroke="black" d="M169.933,-172.955C162.042,-164.093 152.397,-153.262 143.763,-143.565"/>
<polygon fill="black" stroke="black" points="146.372,-141.231 137.108,-136.09 141.144,-145.886 146.372,-141.231"/>
</g>
<!-- add_in_1 -->
<g id="node10" class="node"><title>add_in_1</title>
<ellipse fill="none" stroke="black" cx="315" cy="-191" rx="55.1543" ry="18.3848"/>
<text text-anchor="middle" x="315" y="-187.4" font-family="Times Roman,serif" font-size="14.00">add_in_1</text>
</g>
<!-- adder -->
<g id="node12" class="node"><title>adder</title>
<polygon fill="none" stroke="black" points="407,-136 351,-136 351,-100 407,-100 407,-136"/>
<text text-anchor="middle" x="379" y="-114.4" font-family="Times Roman,serif" font-size="14.00">adder</text>
</g>
<!-- add_in_1&#45;&gt;adder -->
<g id="edge10" class="edge"><title>add_in_1&#45;&gt;adder</title>
<path fill="none" stroke="black" d="M330.82,-172.955C338.513,-164.181 347.898,-153.476 356.334,-143.853"/>
<polygon fill="black" stroke="black" points="359.179,-145.917 363.14,-136.09 353.916,-141.302 359.179,-145.917"/>
</g>
<!-- add_out -->
<g id="node16" class="node"><title>add_out</title>
<ellipse fill="none" stroke="black" cx="379" cy="-45" rx="50.9117" ry="18.3848"/>
<text text-anchor="middle" x="379" y="-41.4" font-family="Times Roman,serif" font-size="14.00">add_out</text>
</g>
<!-- adder&#45;&gt;add_out -->
<g id="edge14" class="edge"><title>adder&#45;&gt;add_out</title>
<path fill="none" stroke="black" d="M379,-99.9551C379,-92.0906 379,-82.6751 379,-73.8778"/>
<polygon fill="black" stroke="black" points="382.5,-73.5995 379,-63.5995 375.5,-73.5996 382.5,-73.5995"/>
</g>
<!-- add_in_2 -->
<g id="node13" class="node"><title>add_in_2</title>
<ellipse fill="none" stroke="black" cx="443" cy="-191" rx="55.1543" ry="18.3848"/>
<text text-anchor="middle" x="443" y="-187.4" font-family="Times Roman,serif" font-size="14.00">add_in_2</text>
</g>
<!-- add_in_2&#45;&gt;adder -->
<g id="edge12" class="edge"><title>add_in_2&#45;&gt;adder</title>
<path fill="none" stroke="black" d="M427.18,-172.955C419.487,-164.181 410.102,-153.476 401.666,-143.853"/>
<polygon fill="black" stroke="black" points="404.084,-141.302 394.86,-136.09 398.821,-145.917 404.084,-141.302"/>
</g>
</g>
</svg>
